<?xml version="1.0" encoding="UTF-8"?><svg id="uuid-816b25d9-7a2b-4259-a4f4-e060a3a13e96" xmlns="http://www.w3.org/2000/svg" viewBox="0 0 145 35" width="145" height="35"><path d="M24.83,15.78c0,5.95-4.83,10.78-10.78,10.78S3.27,21.73,3.27,15.78,8.1,5,14.05,5s10.78,4.83,10.78,10.78Z" fill="none" stroke="#1d4ed8" stroke-linecap="round" stroke-linejoin="round" stroke-width="5.28"/><path d="M31.95,22.9c0,5.95-4.83,10.78-10.78,10.78s-10.78-4.83-10.78-10.78,4.83-10.78,10.78-10.78,10.78,4.83,10.78,10.78Z" fill="#ffaf00" stroke-width="0"/><path d="M43.81,2.68c1.89,0,3.38.04,5.04.99,2.79,1.58,4.09,4.81,4.09,7.92,0,6.3-4.46,9.23-10.39,8.77v12.33h-5.94V2.68h7.2ZM42.91,15.37c2.7,0,4.14-.94,4.14-3.82,0-2.39-.81-4.05-3.46-4.05h-1.03v7.88h.36Z" fill="#000" stroke-width="0"/><path d="M67.39,32.7l-5.26-13.81v13.81h-5.94V2.68h6.43c2.21,0,4.64.18,6.52,1.44,2.38,1.57,3.55,4.5,3.55,7.29,0,3.42-1.35,5.85-4.27,7.65l5.22,13.63h-6.25ZM62.12,15.6c.31.04.67.04.99.04,2.56,0,3.82-1.75,3.82-4.19s-1.08-4.09-3.69-4.09h-1.12v8.23Z" fill="#000" stroke-width="0"/><path d="M77.47,32.7V2.68h11.92v5.58h-5.98v6.48h5.26v5.67h-5.26v6.75h6.07v5.53h-12.01Z" fill="#000" stroke-width="0"/><path d="M105.82,9.48c-1.22-1.03-2.61-1.93-4.28-1.93-1.75,0-2.97,1.17-2.97,2.92,0,5.17,9,5.08,9,13.45,0,5.17-3.11,9.27-8.55,9.27-1.84,0-3.65-.5-5.17-1.53v-5.67c1.35.9,2.75,1.62,4.41,1.62,2.03,0,3.51-1.26,3.51-3.33,0-.54-.09-1.04-.32-1.53-.54-1.12-2.21-2.12-3.2-2.79-3.37-2.34-5.53-4.5-5.53-8.86,0-4.72,2.75-8.86,7.83-8.86,2.03,0,3.51.45,5.27,1.44v5.8Z" fill="#000" stroke-width="0"/><path d="M119.27,8.17v24.52h-5.94V8.17h-4.63V2.68h15.21v5.49h-4.63Z" fill="#000" stroke-width="0"/><path d="M137.54,32.7l-1.12-5.04h-5.99l-1.08,5.04h-5.94l7.02-30.01h6.21l7.2,30.01h-6.3ZM135.52,23.02c-.63-2.88-1.26-5.71-1.71-8.64-.18-1.3-.36-2.65-.5-3.96-.27,4.23-1.12,8.41-1.98,12.6h4.18Z" fill="#000" stroke-width="0"/></svg>
